<svg width="40" height="40" viewBox="0 0 40 40" fill="none" xmlns="http://www.w3.org/2000/svg" class="benefit-logo">
<path d="M23.0174 18.3594H25.3611V20.7031H23.0174V18.3594Z" fill="url(#paint0_linear)"/>
<path d="M31.2462 4.70633C30.7862 4.70648 30.3465 4.79523 29.9432 4.95648C29.5372 3.45867 28.1658 2.35352 26.5413 2.35352C26.0815 2.35352 25.6421 2.44195 25.239 2.60289C24.8329 1.10508 23.4608 0 21.8314 0C20.2071 0 18.8358 1.10484 18.4297 2.6032C18.0262 2.44211 17.5862 2.35352 17.1258 2.35352C15.1827 2.35352 13.6019 3.93438 13.6019 5.87742V19.8974L11.416 17.9419C9.94881 16.6295 7.70912 16.6916 6.31709 18.0836C4.95748 19.4431 4.85498 21.5868 6.07858 23.0699L13.6019 32.1886V40H32.4203V32.0442L34.7738 27.3372L34.775 8.23406C34.7972 6.31398 33.1283 4.68773 31.2462 4.70633ZM32.43 26.7838L30.0765 31.4909V37.6562H15.9456V31.3466L7.88639 21.5784C7.43553 21.0318 7.47326 20.2419 7.97428 19.7409C8.48733 19.228 9.31264 19.205 9.85326 19.6887L16.7361 25.872C17.7356 26.7755 18.3089 28.0666 18.3089 29.4141H20.6526C20.6526 27.4053 19.798 25.4805 18.3078 24.1334L15.9456 21.9978V5.87742C15.9456 5.22664 16.4751 4.69727 17.1272 4.69727C17.778 4.69727 18.3074 5.22672 18.3074 5.87742V17.562H20.6512V3.52391C20.6512 2.87312 21.1805 2.34375 21.8371 2.34375C22.4879 2.34375 23.0173 2.8732 23.0173 3.52539V14.6175H25.3611V5.87742C25.3611 5.22664 25.8904 4.69727 26.5412 4.69727C27.192 4.69727 27.7214 5.22672 27.7214 5.87742V17.562L30.0651 17.5622L30.0669 8.22992C30.0671 7.57945 30.5963 7.05016 31.2469 7.04992C31.7988 7.04633 32.432 7.52688 32.431 8.23383L32.43 26.7838Z" fill="url(#paint1_linear)"/>
<path d="M24.1463 22.4055H26.4901V24.7493H24.1463V22.4055Z" fill="url(#paint2_linear)"/>
<path d="M28.1917 23.5352H30.5354V25.8789H28.1917V23.5352Z" fill="url(#paint3_linear)"/>
<defs>
<linearGradient id="paint0_linear" x1="23.0174" y1="19.5313" x2="25.3611" y2="19.5313" gradientUnits="userSpaceOnUse">
<stop stop-color="#100D0A"/>
<stop offset="1" stop-color="#F5B254"/>
</linearGradient>
<linearGradient id="paint1_linear" x1="5.22491" y1="20" x2="34.7752" y2="20" gradientUnits="userSpaceOnUse">
<stop stop-color="#100D0A"/>
<stop offset="1" stop-color="#F5B254"/>
</linearGradient>
<linearGradient id="paint2_linear" x1="24.1463" y1="23.5774" x2="26.4901" y2="23.5774" gradientUnits="userSpaceOnUse">
<stop stop-color="#100D0A"/>
<stop offset="1" stop-color="#F5B254"/>
</linearGradient>
<linearGradient id="paint3_linear" x1="28.1917" y1="24.707" x2="30.5354" y2="24.707" gradientUnits="userSpaceOnUse">
<stop stop-color="#100D0A"/>
<stop offset="1" stop-color="#F5B254"/>
</linearGradient>
</defs>
</svg>
