<svg width="40" height="40" viewBox="0 0 40 40" fill="none" xmlns="http://www.w3.org/2000/svg" class="benefit-logo">
<path d="M27.7839 19.6993C28.1076 16.7331 21.5012 3.85931 20 1.27026C18.5675 3.97894 18.2585 4.36509 15.6324 9.85539C12.7622 16.4007 11.1048 19.3276 13.1242 23.3445H0.00914001V39.509H39.9908V23.3445H26.8757C27.4551 22.2567 27.7839 21.0159 27.7839 19.6993ZM2.35181 37.1663V33.6512C5.04776 33.9371 5.41783 34.7142 8.72373 34.6996C12.6171 34.7124 12.5936 33.6324 16.2668 33.6064C19.9391 33.6323 19.9179 34.7125 23.8102 34.6996C27.7024 34.7124 27.6813 33.6324 31.3538 33.6064C34.4749 33.602 34.7507 34.4297 37.6481 34.6556V37.1663H2.35181ZM37.6481 25.6872V32.3056C35.0123 32.0048 34.6215 31.2505 31.3538 31.2638C27.4601 31.251 27.4837 32.3311 23.8102 32.3571C20.1379 32.3312 20.1591 31.251 16.2668 31.2638C12.3749 31.251 12.396 32.3311 8.72373 32.3571C5.56799 32.3604 5.30827 31.5149 2.35181 31.3023V25.6873H15.0319C17.7617 28.062 22.2388 28.0616 24.968 25.6873H37.6481V25.6872ZM20 25.1406C16.9928 25.1405 14.558 22.6916 14.5587 19.6993C14.5587 18.9442 14.9734 16.792 17.7502 10.8573C18.5639 9.11901 19.3831 7.48069 20 6.27656C20.6169 7.48069 21.436 9.11901 22.2497 10.8573C25.0266 16.792 25.4412 18.9442 25.4412 19.6993C25.442 22.6915 23.0071 25.1405 20 25.1406Z" fill="url(#paint0_linear)"/>
<path d="M5.185 17.8008C8.03916 17.8008 10.3608 15.4792 10.3608 12.625C10.5919 10.7126 6.38828 2.59418 5.185 0.48999C3.97704 2.60269 -0.222984 10.7133 0.00933164 12.625C0.00917546 15.4792 2.33077 17.8008 5.185 17.8008ZM5.185 5.51269C6.58124 8.30672 8.01808 11.5716 8.01808 12.625C8.01808 14.1876 6.74679 15.4581 5.185 15.4581C3.62244 15.4581 2.35193 14.1876 2.35193 12.625C2.35185 11.5715 3.78877 8.30664 5.185 5.51269Z" fill="url(#paint1_linear)"/>
<path d="M34.815 17.8008C37.6692 17.8008 39.9907 15.4792 39.9907 12.625C40.222 10.7091 36.019 2.59613 34.815 0.48999C33.6079 2.60066 29.4071 10.7169 29.6393 12.625C29.6392 15.4792 31.9608 17.8008 34.815 17.8008ZM34.815 5.51269C36.2112 8.30593 37.6481 11.5708 37.6481 12.625C37.6481 14.1876 36.3776 15.4581 34.815 15.4581C33.2532 15.4581 31.9819 14.1876 31.9819 12.625C31.9819 11.5715 33.4195 8.30664 34.815 5.51269Z" fill="url(#paint2_linear)"/>
<path d="M21.1713 16.2386H18.8286V18.269H16.7983V20.6116H18.8286V22.642H21.1713V20.6116H23.2016V18.269H21.1713V16.2386Z" fill="url(#paint3_linear)"/>
<defs>
<linearGradient id="paint0_linear" x1="0.00914016" y1="20.3896" x2="39.9908" y2="20.3896" gradientUnits="userSpaceOnUse">
<stop stop-color="#100D0A"/>
<stop offset="1" stop-color="#F5B254"/>
</linearGradient>
<linearGradient id="paint1_linear" x1="6.10738e-05" y1="9.14539" x2="10.3699" y2="9.14539" gradientUnits="userSpaceOnUse">
<stop stop-color="#100D0A"/>
<stop offset="1" stop-color="#F5B254"/>
</linearGradient>
<linearGradient id="paint2_linear" x1="29.6301" y1="9.14539" x2="39.9999" y2="9.14539" gradientUnits="userSpaceOnUse">
<stop stop-color="#100D0A"/>
<stop offset="1" stop-color="#F5B254"/>
</linearGradient>
<linearGradient id="paint3_linear" x1="16.7983" y1="19.4403" x2="23.2016" y2="19.4403" gradientUnits="userSpaceOnUse">
<stop stop-color="#100D0A"/>
<stop offset="1" stop-color="#F5B254"/>
</linearGradient>
</defs>
</svg>
