<svg width="40" height="40" viewBox="0 0 40 40" fill="none" xmlns="http://www.w3.org/2000/svg" class="benefit-logo">
<g clip-path="url(#clip0)">
<path d="M10.9538 26.3367C10.7775 26.4694 10.6655 26.6704 10.6455 26.8902C10.6255 27.11 10.6993 27.3279 10.8489 27.4903L11.3204 28.0023C12.3224 29.0902 13.7455 29.7143 15.2247 29.7143C16.7039 29.7143 18.1269 29.0903 19.1291 28.0023L19.6005 27.4903C19.7501 27.328 19.8239 27.11 19.804 26.8903C19.784 26.6705 19.6719 26.4694 19.4956 26.3368L18.2535 25.4024C17.3687 24.7369 16.2216 24.6035 15.2248 25.0228C14.2282 24.6037 13.0809 24.7371 12.196 25.4024L10.9538 26.3367ZM13.1352 26.6511C13.6298 26.2792 14.2911 26.2458 14.8204 26.5658C15.069 26.7161 15.3803 26.7161 15.6288 26.5658C16.1581 26.2457 16.8197 26.2792 17.314 26.651L17.8635 27.0643C17.1648 27.7574 16.2124 28.1518 15.2246 28.1518C14.2368 28.1518 13.2844 27.7574 12.5858 27.0643L13.1352 26.6511Z" fill="url(#paint0_linear)"/>
<path d="M5.4036 15.0887C5.09853 15.3938 5.09853 15.8885 5.4036 16.1936C6.17772 16.9677 7.19449 17.3547 8.21126 17.3547C9.22803 17.3547 10.2448 16.9677 11.0189 16.1936C11.324 15.8885 11.324 15.3939 11.0189 15.0887C10.7138 14.7837 10.2192 14.7837 9.91402 15.0887C9.45919 15.5436 8.85452 15.7941 8.21118 15.7941C7.56784 15.7941 6.96317 15.5436 6.50833 15.0887C6.20326 14.7837 5.70875 14.7837 5.4036 15.0887Z" fill="url(#paint1_linear)"/>
<path d="M25.0458 16.1936C25.3508 15.8885 25.3508 15.3939 25.0458 15.0887C24.7406 14.7837 24.2461 14.7837 23.9409 15.0887C23.4861 15.5436 22.8814 15.7941 22.238 15.7941C21.5947 15.7941 20.99 15.5436 20.5352 15.0887C20.2301 14.7837 19.7355 14.7837 19.4303 15.0887C19.1252 15.3938 19.1252 15.8885 19.4303 16.1936C20.2044 16.9677 21.2212 17.3547 22.238 17.3547C23.2547 17.3547 24.2717 16.9677 25.0458 16.1936Z" fill="url(#paint2_linear)"/>
<path d="M14.4169 16.1826C13.9855 16.1826 13.6357 16.5323 13.6357 16.9638V21.1444C13.6357 22.0206 14.3485 22.7334 15.2246 22.7334C15.656 22.7334 16.0059 22.3836 16.0059 21.9522C16.0059 21.5207 15.656 21.1709 15.2246 21.1709C15.21 21.1709 15.1982 21.1591 15.1982 21.1444V16.9638C15.1982 16.5323 14.8483 16.1826 14.4169 16.1826Z" fill="url(#paint3_linear)"/>
<path d="M30.6853 21.3719C30.5366 21.3719 30.3888 21.3758 30.2418 21.3827C30.3582 20.5736 30.4181 19.7537 30.4181 18.934V13.3855C30.4181 7.51859 26.5044 2.33342 20.9008 0.776116C18.3594 0.0697294 15.7365 -0.156124 13.1058 0.105041C12.6765 0.147618 12.3629 0.530186 12.4055 0.959549C12.4481 1.38891 12.8307 1.70281 13.26 1.65984C15.6979 1.41797 18.128 1.62719 20.4824 2.28154C25.4124 3.65166 28.8556 8.21779 28.8556 13.3855V18.934C28.8556 19.8291 28.7778 20.7242 28.6256 21.6018C24.4776 22.5418 21.3713 26.2577 21.3713 30.6858C21.3713 31.1817 21.4107 31.6684 21.4857 32.1435C19.5715 33.3279 17.463 34.0661 15.2092 34.3395C7.42332 33.3936 1.56293 26.7867 1.56293 18.934V13.3855C1.56293 11.4225 2.06464 9.479 3.01367 7.76507C3.95013 6.0741 5.30166 4.63945 6.92216 3.61627C7.28699 3.38589 7.39597 2.9034 7.16567 2.53865C6.93536 2.17389 6.45295 2.06475 6.08796 2.29514C4.24598 3.45823 2.71016 5.08795 1.64683 7.00813C0.569754 8.95308 0.000473022 11.1583 0.000473022 13.3855V18.934C0.000473022 27.6107 6.50022 34.9054 15.1195 35.9023C15.1493 35.9057 15.1793 35.9074 15.2092 35.9074C15.2391 35.9074 15.2691 35.9057 15.2989 35.9023C17.6144 35.6345 19.8699 34.8866 21.8813 33.7262C23.1445 37.3736 26.6137 39.9999 30.6853 39.9999C35.821 39.9999 39.9993 35.8216 39.9993 30.6858C39.9994 25.5501 35.8211 21.3719 30.6853 21.3719ZM30.6853 38.4374C26.4111 38.4374 22.9338 34.9601 22.9338 30.6858C22.9338 26.4116 26.4111 22.9343 30.6853 22.9343C34.9596 22.9343 38.4369 26.4117 38.4369 30.6858C38.4369 34.96 34.9596 38.4374 30.6853 38.4374Z" fill="url(#paint4_linear)"/>
<path d="M32.7467 26.0087C31.1008 26.1037 29.5517 26.7986 28.3848 27.9655C26.8497 29.5007 26.1612 31.6423 26.499 33.768L26.2324 34.0346C25.9273 34.3397 25.9273 34.8344 26.2324 35.1395C26.385 35.292 26.5849 35.3683 26.7848 35.3683C26.9847 35.3683 27.1846 35.292 27.3372 35.1395L27.6042 34.8725C27.9591 34.9289 28.3144 34.9572 28.6673 34.9572C30.4278 34.9572 32.1275 34.2657 33.4062 32.9871C34.573 31.8203 35.2679 30.2712 35.363 28.6252C35.4037 27.9194 35.1409 27.2286 34.642 26.7297C34.1433 26.2308 33.4525 25.9681 32.7467 26.0087ZM33.8032 28.535C33.7302 29.798 33.1969 30.9866 32.3014 31.8821C31.4268 32.7568 30.2956 33.2717 29.103 33.3736L29.9205 32.5561C30.2256 32.2511 30.2256 31.7564 29.9205 31.4512C29.6153 31.1463 29.1208 31.1463 28.8156 31.4512L27.9982 32.2686C28.1003 31.0762 28.6151 29.9447 29.4896 29.0701C30.3852 28.1747 31.5738 27.6414 32.8367 27.5685C33.1014 27.5535 33.3505 27.6475 33.5373 27.8343C33.7241 28.0211 33.8185 28.27 33.8032 28.535Z" fill="url(#paint5_linear)"/>
<path d="M4.29055 34.9282H3.49627V34.134C3.49627 33.7025 3.14644 33.3527 2.71505 33.3527C2.28365 33.3527 1.93382 33.7025 1.93382 34.134V34.9282H1.13954C0.708148 34.9282 0.358315 35.278 0.358315 35.7095C0.358315 36.1409 0.708148 36.4907 1.13954 36.4907H1.93382V37.285C1.93382 37.7164 2.28365 38.0662 2.71505 38.0662C3.14644 38.0662 3.49627 37.7164 3.49627 37.285V36.4907H4.29055C4.72194 36.4907 5.07178 36.1409 5.07178 35.7095C5.07178 35.278 4.72194 34.9282 4.29055 34.9282Z" fill="url(#paint6_linear)"/>
<path d="M32.7879 12.8946H33.5822V13.6888C33.5822 14.1203 33.9321 14.4701 34.3634 14.4701C34.7948 14.4701 35.1447 14.1203 35.1447 13.6888V12.8946H35.9389C36.3703 12.8946 36.7202 12.5448 36.7202 12.1133C36.7202 11.6819 36.3703 11.3321 35.9389 11.3321H35.1447V10.5378C35.1447 10.1063 34.7948 9.75659 34.3634 9.75659C33.9321 9.75659 33.5822 10.1063 33.5822 10.5378V11.3321H32.7879C32.3565 11.3321 32.0067 11.6819 32.0067 12.1133C32.0067 12.5448 32.3565 12.8946 32.7879 12.8946Z" fill="url(#paint7_linear)"/>
<path d="M9.72684 2.31067C10.1583 2.31067 10.5081 1.96089 10.5081 1.52942C10.5081 1.09795 10.1583 0.748169 9.72684 0.748169C9.29536 0.748169 8.94559 1.09795 8.94559 1.52942C8.94559 1.96089 9.29536 2.31067 9.72684 2.31067Z" fill="url(#paint8_linear)"/>
</g>
<defs>
<linearGradient id="paint0_linear" x1="10.6422" y1="27.2487" x2="19.8072" y2="27.2487" gradientUnits="userSpaceOnUse">
<stop stop-color="#100D0A"/>
<stop offset="1" stop-color="#F5B254"/>
</linearGradient>
<linearGradient id="paint1_linear" x1="5.1748" y1="16.1073" x2="11.2477" y2="16.1073" gradientUnits="userSpaceOnUse">
<stop stop-color="#100D0A"/>
<stop offset="1" stop-color="#F5B254"/>
</linearGradient>
<linearGradient id="paint2_linear" x1="19.2015" y1="16.1073" x2="25.2746" y2="16.1073" gradientUnits="userSpaceOnUse">
<stop stop-color="#100D0A"/>
<stop offset="1" stop-color="#F5B254"/>
</linearGradient>
<linearGradient id="paint3_linear" x1="13.6357" y1="19.458" x2="16.0059" y2="19.458" gradientUnits="userSpaceOnUse">
<stop stop-color="#100D0A"/>
<stop offset="1" stop-color="#F5B254"/>
</linearGradient>
<linearGradient id="paint4_linear" x1="0.000473171" y1="19.9999" x2="39.9993" y2="19.9999" gradientUnits="userSpaceOnUse">
<stop stop-color="#100D0A"/>
<stop offset="1" stop-color="#F5B254"/>
</linearGradient>
<linearGradient id="paint5_linear" x1="26.0036" y1="30.6865" x2="35.3671" y2="30.6865" gradientUnits="userSpaceOnUse">
<stop stop-color="#100D0A"/>
<stop offset="1" stop-color="#F5B254"/>
</linearGradient>
<linearGradient id="paint6_linear" x1="0.358315" y1="35.7095" x2="5.07178" y2="35.7095" gradientUnits="userSpaceOnUse">
<stop stop-color="#100D0A"/>
<stop offset="1" stop-color="#F5B254"/>
</linearGradient>
<linearGradient id="paint7_linear" x1="32.0067" y1="12.1133" x2="36.7202" y2="12.1133" gradientUnits="userSpaceOnUse">
<stop stop-color="#100D0A"/>
<stop offset="1" stop-color="#F5B254"/>
</linearGradient>
<linearGradient id="paint8_linear" x1="8.94559" y1="1.52942" x2="10.5081" y2="1.52942" gradientUnits="userSpaceOnUse">
<stop stop-color="#100D0A"/>
<stop offset="1" stop-color="#F5B254"/>
</linearGradient>
<clipPath id="clip0">
<rect width="40" height="40" fill="white"/>
</clipPath>
</defs>
</svg>
