<svg width="40" height="40" viewBox="0 0 40 40" fill="none" xmlns="http://www.w3.org/2000/svg" class="benefit-logo">
<path d="M6.89318 27.6419L5.24385 23.7932C4.73059 22.6308 3.37222 22.1046 2.20985 22.6179C1.04747 23.1311 0.521258 24.4895 1.03451 25.6519C4.07251 32.3352 4.22052 33.0592 5.56785 34.4052L10.9678 39.8052C11.0928 39.9303 11.2624 40.0005 11.4392 40.0006H18.6665C19.0347 40.0006 19.3332 39.7021 19.3332 39.3339C19.4229 37.9821 19.3488 36.6245 19.1125 35.2906C19.7027 35.3465 20.2969 35.3465 20.8872 35.2906C20.5998 36.5106 20.6665 37.2599 20.6665 39.3332C20.6665 39.7014 20.965 39.9999 21.3332 39.9999H28.5632C28.74 39.9999 28.9095 39.9296 29.0345 39.8046L34.4345 34.4046C35.7799 33.0586 35.8872 32.4239 38.9678 25.6512C39.2999 24.8993 39.2055 24.0274 38.7203 23.3639C38.2352 22.7004 37.4329 22.3461 36.6157 22.4345C35.7985 22.523 35.0905 23.0406 34.7585 23.7926L33.1065 27.6419C32.3326 27.1065 31.3708 26.9174 30.4518 27.1199C30.7603 26.3633 31.0222 25.5885 31.2358 24.7999C32.5592 24.5332 35.7652 23.3712 35.7652 18.3332C35.7652 16.6259 35.4678 14.5219 33.7698 14.2899C36.1699 10.5752 37.129 6.11122 36.4665 1.73855L36.1998 0.521886C36.1318 0.215703 35.8595 -0.00162786 35.5458 -0.000114213H4.45385C4.14144 -6.05997e-05 3.87097 0.216925 3.80318 0.521886L3.52318 1.78855C2.87251 6.14863 3.83567 10.5963 6.23185 14.2966C4.55051 14.5472 4.25918 16.6452 4.25918 18.3359C4.25918 23.3759 7.46785 24.5359 8.79251 24.8026C9.00743 25.5934 9.27036 26.3704 9.57985 27.1292C8.65206 26.9138 7.67644 27.0999 6.89318 27.6419ZM17.9998 38.6666H11.7125L6.51252 33.4626C5.42385 32.3766 5.42518 32.0886 2.24851 25.0999C2.10894 24.7837 2.14865 24.4171 2.35269 24.1381C2.55672 23.8592 2.89408 23.7102 3.23769 23.7475C3.58129 23.7847 3.87894 24.0024 4.01851 24.3186C6.71918 30.6212 5.66918 29.0859 10.9652 34.3852C11.1326 34.5585 11.3804 34.628 11.6135 34.567C11.8466 34.506 12.0286 34.324 12.0896 34.0909C12.1507 33.8578 12.0812 33.6099 11.9078 33.4426C8.25585 29.7912 8.08318 29.6899 7.52652 28.8372C8.27305 28.2174 9.35473 28.2157 10.1032 28.8332C11.4917 30.1065 13.0959 31.1223 14.8405 31.8332C16.3998 32.3512 17.9998 34.3719 17.9998 37.1999V38.6666ZM18.6378 33.8832C18.0186 32.3594 16.797 31.1594 15.2625 30.5672C13.9524 30.0373 12.7367 29.2988 11.6625 28.3806C9.37185 24.3219 9.07718 19.4306 9.07385 14.7699C10.4865 12.2806 14.1918 6.53855 19.9998 3.03522C25.8205 6.56455 29.5332 12.3152 30.9505 14.8112C30.9398 19.5446 30.6572 24.2112 28.3958 28.3359C27.3057 29.2732 26.0702 30.0268 24.7378 30.5672C23.2021 31.1606 21.9798 32.3624 21.3605 33.8879C20.4581 34.0255 19.5398 34.0239 18.6378 33.8832ZM32.4732 28.8339C31.9192 29.6832 31.7585 29.7726 28.0918 33.4392C27.8392 33.7008 27.8428 34.1166 28.1 34.3738C28.3571 34.6309 28.7729 34.6345 29.0345 34.3819C34.2798 29.1372 33.2792 30.6246 35.9812 24.3186C36.1208 24.0024 36.4184 23.7847 36.762 23.7475C37.1056 23.7102 37.443 23.8592 37.647 24.1381C37.851 24.4171 37.8908 24.7837 37.7512 25.0999C34.6218 31.9846 34.6025 32.3499 33.4912 33.4626L28.2872 38.6666H21.9998V37.1999C21.9771 35.7527 22.4447 34.3403 23.3265 33.1926C24.8898 31.2379 25.3885 32.6279 29.8965 28.8332C30.6442 28.2148 31.7258 28.2151 32.4732 28.8339ZM34.4318 18.3332C34.4318 21.6899 32.8045 22.8912 31.5945 23.3219C32.0449 20.9482 32.2699 18.5373 32.2665 16.1212C32.8832 15.6832 33.4298 15.5006 33.7332 15.6472C33.8965 15.7259 34.4318 16.1539 34.4318 18.3332ZM35.0125 1.33322C35.8955 5.78909 34.9071 10.412 32.2792 14.1172C32.2158 9.13789 30.9005 5.72655 28.2565 3.70389C27.964 3.48021 27.5455 3.53603 27.3218 3.82855C27.0982 4.12108 27.154 4.53954 27.4465 4.76322C29.3738 6.23722 30.4785 8.64922 30.8232 12.0632C28.1498 8.00322 24.0212 3.67855 19.7132 1.33322H35.0125ZM4.98851 1.33322H14.0812C12.5937 2.31845 11.267 3.52709 10.1478 4.91655C9.91773 5.20411 9.96429 5.62377 10.2518 5.85389C10.5394 6.084 10.9591 6.03744 11.1892 5.74989C12.6793 3.90982 14.5565 2.42055 16.6872 1.38789C17.3644 1.65406 18.0273 1.95536 18.6732 2.29055C13.0772 5.89322 9.50318 11.2752 7.82585 14.2666C5.11567 10.5407 4.08691 5.85139 4.98851 1.33322ZM5.59251 18.3332C5.59251 16.1512 6.12585 15.7232 6.29251 15.6446C6.58985 15.5012 7.14785 15.6866 7.75918 16.1186C7.75583 18.5357 7.98105 20.9478 8.43185 23.3226C7.22185 22.8946 5.59251 21.6939 5.59251 18.3332Z" fill="url(#paint0_linear)"/>
<path d="M12.2977 14.4898C12.9929 14.1404 13.7989 14.0833 14.5364 14.3311L17.1224 15.1931C17.3487 15.2684 17.5979 15.2172 17.7762 15.0589C17.9545 14.9006 18.0348 14.6592 17.9869 14.4256C17.9389 14.192 17.77 14.0017 17.5437 13.9265L14.9577 13.0665C13.885 12.7061 12.7127 12.7894 11.7017 13.2978C11.4867 13.4032 11.3447 13.6157 11.3297 13.8547C11.3147 14.0936 11.429 14.3222 11.6291 14.4537C11.8292 14.5851 12.0844 14.5992 12.2977 14.4905V14.4898Z" fill="url(#paint1_linear)"/>
<path d="M22.6664 15.2262C22.8218 15.2262 22.6664 15.2629 25.4664 14.3302C26.2038 14.0816 27.0101 14.1388 27.7051 14.4889C27.9184 14.5975 28.1736 14.5835 28.3737 14.4521C28.5738 14.3206 28.6881 14.092 28.6731 13.853C28.6581 13.6141 28.5161 13.4015 28.3011 13.2962C27.2898 12.7878 26.1174 12.7046 25.0444 13.0649L22.4591 13.9269C22.1492 14.0298 21.9595 14.3421 22.0109 14.6646C22.0624 14.9871 22.3399 15.2248 22.6664 15.2262Z" fill="url(#paint2_linear)"/>
<path d="M17.2967 17.7872C17.1784 17.4393 16.8009 17.2526 16.4527 17.3699C16.4293 17.3772 14.156 18.1185 12.4 16.8012C12.1359 16.6044 11.7677 16.6299 11.5333 16.8612C11.2992 17.1034 10.9969 17.2685 10.6667 17.3345C10.2985 17.3345 9.99999 17.633 9.99999 18.0012C9.99999 18.3694 10.2985 18.6679 10.6667 18.6679C11.1645 18.6412 11.6428 18.4653 12.0393 18.1632C12.14 18.2232 12.2393 18.2765 12.342 18.3279C12.2526 18.4635 12.1362 18.5793 12 18.6679C11.6318 18.6679 11.3333 18.9664 11.3333 19.3345C11.3333 20.1539 12.5647 20.4679 13.6487 18.7885C14.7228 19.008 15.8348 18.9541 16.8827 18.6319C17.2296 18.5123 17.4147 18.1347 17.2967 17.7872Z" fill="url(#paint3_linear)"/>
<path d="M27.5999 16.8C25.8525 18.11 23.5945 17.3847 23.5478 17.3687C23.1993 17.2498 22.8204 17.4359 22.7015 17.7844C22.5826 18.1329 22.7687 18.5118 23.1172 18.6307C24.165 18.9535 25.2771 19.0073 26.3512 18.7874C26.6898 19.3134 27.2705 20 27.9999 20C28.3712 20.0019 28.675 19.7047 28.6812 19.3334C28.685 19.1579 28.6179 18.9882 28.495 18.8628C28.3722 18.7373 28.2041 18.6667 28.0285 18.6667C27.8808 18.5819 27.7548 18.4639 27.6605 18.322C27.7605 18.2707 27.8605 18.2187 27.9605 18.1587C28.3567 18.462 28.835 18.639 29.3332 18.6667C29.7014 18.6667 29.9999 18.3682 29.9999 18C29.9999 17.6318 29.7014 17.3334 29.3332 17.3334C29.0048 17.2671 28.7042 17.1028 28.4712 16.862C28.2366 16.6275 27.8653 16.601 27.5999 16.8Z" fill="url(#paint4_linear)"/>
<path d="M17.6299 23.2217C19.0642 24.1814 20.9356 24.1814 22.3699 23.2217C22.5681 23.0895 22.6807 22.8617 22.6653 22.624C22.6499 22.3863 22.5088 22.1748 22.2953 22.0693C22.0817 21.9638 21.8281 21.9802 21.6299 22.1124C20.6433 22.7718 19.3565 22.7718 18.3699 22.1124C18.0636 21.9081 17.6496 21.9907 17.4452 22.2971C17.2409 22.6034 17.3236 23.0174 17.6299 23.2217Z" fill="url(#paint5_linear)"/>
<path d="M23.9999 27.1992C23.9979 26.9758 23.9037 26.7633 23.7396 26.6118C23.5755 26.4603 23.356 26.3834 23.1333 26.3992C22.5806 26.3992 20.9446 25.3325 19.9999 25.3325C19.0426 25.3325 17.4293 26.3992 16.8699 26.3992C16.6467 26.3826 16.4265 26.4592 16.2616 26.6107C16.0968 26.7623 16.0021 26.9753 15.9999 27.1992C15.9999 28.1398 17.8833 29.3325 19.9999 29.3325C22.1166 29.3325 23.9999 28.1392 23.9999 27.1992ZM19.9999 26.6658C20.7174 26.876 21.4146 27.15 22.0833 27.4845C20.7791 28.1705 19.2208 28.1705 17.9166 27.4845C18.5849 27.1493 19.2822 26.8753 19.9999 26.6658Z" fill="url(#paint6_linear)"/>
<path d="M20.6666 30.6667H19.3333C18.9651 30.6667 18.6666 30.9652 18.6666 31.3334C18.6666 31.7016 18.9651 32.0001 19.3333 32.0001H20.6666C21.0348 32.0001 21.3333 31.7016 21.3333 31.3334C21.3333 30.9652 21.0348 30.6667 20.6666 30.6667Z" fill="url(#paint7_linear)"/>
<path d="M8.66644 7.99935C9.03463 7.99935 9.33311 7.70087 9.33311 7.33268C9.33311 6.96449 9.03463 6.66602 8.66644 6.66602C8.29825 6.66602 7.99977 6.96449 7.99977 7.33268C7.99977 7.70087 8.29825 7.99935 8.66644 7.99935Z" fill="url(#paint8_linear)"/>
<defs>
<linearGradient id="paint0_linear" x1="0.837891" y1="20.0002" x2="39.1639" y2="20.0002" gradientUnits="userSpaceOnUse">
<stop stop-color="#100D0A"/>
<stop offset="1" stop-color="#F5B254"/>
</linearGradient>
<linearGradient id="paint1_linear" x1="11.3284" y1="14.0365" x2="18.0005" y2="14.0365" gradientUnits="userSpaceOnUse">
<stop stop-color="#100D0A"/>
<stop offset="1" stop-color="#F5B254"/>
</linearGradient>
<linearGradient id="paint2_linear" x1="22.0025" y1="14.0353" x2="28.6744" y2="14.0353" gradientUnits="userSpaceOnUse">
<stop stop-color="#100D0A"/>
<stop offset="1" stop-color="#F5B254"/>
</linearGradient>
<linearGradient id="paint3_linear" x1="9.99999" y1="18.3348" x2="17.3323" y2="18.3348" gradientUnits="userSpaceOnUse">
<stop stop-color="#100D0A"/>
<stop offset="1" stop-color="#F5B254"/>
</linearGradient>
<linearGradient id="paint4_linear" x1="22.6656" y1="18.3334" x2="29.9999" y2="18.3334" gradientUnits="userSpaceOnUse">
<stop stop-color="#100D0A"/>
<stop offset="1" stop-color="#F5B254"/>
</linearGradient>
<linearGradient id="paint5_linear" x1="17.3331" y1="22.9708" x2="22.6667" y2="22.9708" gradientUnits="userSpaceOnUse">
<stop stop-color="#100D0A"/>
<stop offset="1" stop-color="#F5B254"/>
</linearGradient>
<linearGradient id="paint6_linear" x1="15.9999" y1="27.3325" x2="23.9999" y2="27.3325" gradientUnits="userSpaceOnUse">
<stop stop-color="#100D0A"/>
<stop offset="1" stop-color="#F5B254"/>
</linearGradient>
<linearGradient id="paint7_linear" x1="18.6666" y1="31.3334" x2="21.3333" y2="31.3334" gradientUnits="userSpaceOnUse">
<stop stop-color="#100D0A"/>
<stop offset="1" stop-color="#F5B254"/>
</linearGradient>
<linearGradient id="paint8_linear" x1="7.99977" y1="7.33268" x2="9.33311" y2="7.33268" gradientUnits="userSpaceOnUse">
<stop stop-color="#100D0A"/>
<stop offset="1" stop-color="#F5B254"/>
</linearGradient>
</defs>
</svg>
