<svg width="40" height="40" viewBox="0 0 40 40" fill="none" xmlns="http://www.w3.org/2000/svg" class="benefit-logo">
<path d="M33.2812 18.9844C33.2812 18.5529 32.9315 18.2031 32.5 18.2031C32.0685 18.2031 31.7188 18.5529 31.7188 18.9844C31.7188 21.5692 29.6161 23.6719 27.0312 23.6719C26.5997 23.6719 26.25 24.0216 26.25 24.4531C26.25 24.8846 26.5997 25.2344 27.0312 25.2344C30.4776 25.2344 33.2812 22.4307 33.2812 18.9844Z" fill="url(#paint0_linear)"/>
<path d="M17.005 26.5994C16.5921 27.2223 12.9688 32.7527 12.9688 35.0781C12.9688 37.746 15.1154 40 17.6562 40C20.1971 40 22.3438 37.746 22.3438 35.0781C22.3438 32.7527 18.7204 27.2223 18.3075 26.5994C18.1625 26.3812 17.9181 26.25 17.6562 26.25C17.3944 26.25 17.15 26.3812 17.005 26.5994ZM20.7812 35.0781C20.7812 36.8677 19.321 38.4375 17.6562 38.4375C15.9915 38.4375 14.5312 36.8677 14.5312 35.0781C14.5312 33.8742 16.2473 30.7321 17.6562 28.4763C19.0652 30.7321 20.7812 33.8742 20.7812 35.0781Z" fill="url(#paint1_linear)"/>
<path d="M9.0625 12.9688C8.80585 12.9688 8.56567 13.0948 8.4198 13.306C7.92572 14.021 3.59375 20.372 3.59375 23.125C3.59375 26.1404 6.04706 28.5938 9.0625 28.5938C12.0779 28.5938 14.5312 26.1404 14.5312 23.125C14.5312 20.372 10.1993 14.021 9.7052 13.306C9.55933 13.0948 9.31915 12.9688 9.0625 12.9688ZM9.0625 27.0312C6.90857 27.0312 5.15625 25.2789 5.15625 23.125C5.15625 21.6141 7.341 17.7783 9.0625 15.1508C10.784 17.778 12.9688 21.6132 12.9688 23.125C12.9688 25.2789 11.2164 27.0312 9.0625 27.0312Z" fill="url(#paint2_linear)"/>
<path d="M19.2188 18.2031C19.2188 18.6346 18.869 18.9844 18.4375 18.9844C18.006 18.9844 17.6562 18.6346 17.6562 18.2031C17.6562 17.7716 18.006 17.4219 18.4375 17.4219C18.869 17.4219 19.2188 17.7716 19.2188 18.2031Z" fill="url(#paint3_linear)"/>
<path d="M27.6898 0.360718C27.5461 0.136108 27.298 0 27.0313 0C26.7645 0 26.5164 0.136108 26.3727 0.360718C26.1478 0.713196 20.8374 9.0567 18.6206 14.939C18.4683 15.3427 18.6725 15.7935 19.0762 15.9454C19.4797 16.0977 19.9304 15.8939 20.0827 15.4901C21.7899 10.9595 25.5206 4.71161 27.0334 2.25433C29.7043 6.57349 34.8438 15.5865 34.8438 18.9844C34.8438 23.2922 31.3391 26.7969 27.0313 26.7969C23.5434 26.7969 20.4501 24.4547 19.5087 21.1008C19.3921 20.6854 18.9609 20.4431 18.5452 20.5597C18.1299 20.6763 17.8879 21.1078 18.0042 21.5231C19.1342 25.5481 22.8464 28.3594 27.0313 28.3594C32.2006 28.3594 36.4062 24.1537 36.4062 18.9844C36.4062 14.678 29.9182 3.84491 27.6898 0.360718Z" fill="url(#paint4_linear)"/>
<defs>
<linearGradient id="paint0_linear" x1="26.25" y1="21.7188" x2="33.2813" y2="21.7188" gradientUnits="userSpaceOnUse">
<stop stop-color="#100D0A"/>
<stop offset="1" stop-color="#F5B254"/>
</linearGradient>
<linearGradient id="paint1_linear" x1="12.9688" y1="33.125" x2="22.3438" y2="33.125" gradientUnits="userSpaceOnUse">
<stop stop-color="#100D0A"/>
<stop offset="1" stop-color="#F5B254"/>
</linearGradient>
<linearGradient id="paint2_linear" x1="3.59375" y1="20.7813" x2="14.5313" y2="20.7813" gradientUnits="userSpaceOnUse">
<stop stop-color="#100D0A"/>
<stop offset="1" stop-color="#F5B254"/>
</linearGradient>
<linearGradient id="paint3_linear" x1="17.6563" y1="18.2031" x2="19.2188" y2="18.2031" gradientUnits="userSpaceOnUse">
<stop stop-color="#100D0A"/>
<stop offset="1" stop-color="#F5B254"/>
</linearGradient>
<linearGradient id="paint4_linear" x1="17.975" y1="14.1797" x2="36.4063" y2="14.1797" gradientUnits="userSpaceOnUse">
<stop stop-color="#100D0A"/>
<stop offset="1" stop-color="#F5B254"/>
</linearGradient>
</defs>
</svg>
