<svg width="40" height="40" viewBox="0 0 40 40" fill="none" xmlns="http://www.w3.org/2000/svg" class="benefit-logo">
<path d="M21.1995 20.3632C21.9536 20.3632 21.9549 19.1913 21.1995 19.1913C20.4455 19.1913 20.4442 20.3632 21.1995 20.3632Z" fill="url(#paint0_linear)"/>
<path d="M18.4009 27C19.1549 27 19.1562 25.8281 18.4009 25.8281C17.6468 25.8281 17.6456 27 18.4009 27Z" fill="url(#paint1_linear)"/>
<path d="M21.1995 29.542C21.9536 29.542 21.9549 28.3701 21.1995 28.3701C20.4455 28.3701 20.4442 29.542 21.1995 29.542Z" fill="url(#paint2_linear)"/>
<path d="M34.1422 5.85781C30.3646 2.08039 25.3422 0 20 0C16.7626 0 13.5468 0.791641 10.7005 2.2893C7.94586 3.73875 5.53117 5.84641 3.71742 8.38453C3.5293 8.64781 3.59023 9.01375 3.85352 9.20187C4.11672 9.39 4.48273 9.32906 4.67086 9.06578C6.37883 6.6757 8.6525 4.69102 11.2462 3.32633C13.9249 1.91687 16.952 1.17188 20 1.17188C24.8334 1.17188 29.388 2.98164 32.8921 6.27922L24.6506 14.5207V10.4954C27.1466 10.4734 27.1339 6.59883 24.6334 6.59883H15.3666C12.87 6.59883 12.8494 10.4734 15.3494 10.4954V23.8659C15.2937 23.8935 15.2414 23.9299 15.1951 23.9762L6.27922 32.8921C2.98164 29.388 1.17188 24.8334 1.17188 20C1.17188 17.0596 1.83187 14.2421 3.13359 11.6256C3.27773 11.3359 3.15969 10.9842 2.87 10.84C2.58023 10.6959 2.22852 10.8139 2.08437 11.1036C0.701328 13.8838 0 16.8769 0 20C0 25.3422 2.08039 30.3646 5.85781 34.1422C9.63539 37.9196 14.6578 40 20 40C25.3422 40 30.3646 37.9196 34.1422 34.1422C37.9196 30.3646 40 25.3422 40 20C40 14.6578 37.9196 9.63539 34.1422 5.85781ZM16.5212 15.8097V10.4959H23.4788V15.8097H16.5212ZM14.59 8.54734C14.59 8.11914 14.9384 7.7707 15.3666 7.7707H24.6334C25.6049 7.7707 25.6494 9.32398 24.6334 9.32398H15.3666C14.9384 9.32398 14.59 8.97563 14.59 8.54734ZM33.3135 33.3135C29.7573 36.8697 25.0292 38.8281 20 38.8281C15.1666 38.8281 10.612 37.0184 7.10789 33.7208L15.3494 25.4793V28.7505C15.3494 31.3127 17.4338 33.399 19.9959 33.4012C22.5299 33.4012 24.6507 31.2861 24.6507 28.7505V26.25C24.6507 25.4735 23.4119 25.5207 23.4788 26.3013V28.7505C23.4788 30.6443 21.8881 32.2293 19.997 32.2293C18.0805 32.2277 16.5212 30.667 16.5212 28.7505V16.9816H23.4788V23.0737C23.4156 23.8109 24.6507 23.9791 24.6507 23.1251V16.178L33.7208 7.10789C37.0184 10.612 38.8281 15.1666 38.8281 20C38.8281 25.0292 36.8697 29.7573 33.3135 33.3135Z" fill="url(#paint3_linear)"/>
<defs>
<linearGradient id="paint0_linear" x1="20.6335" y1="19.7772" x2="21.7656" y2="19.7772" gradientUnits="userSpaceOnUse">
<stop stop-color="#100D0A"/>
<stop offset="1" stop-color="#F5B254"/>
</linearGradient>
<linearGradient id="paint1_linear" x1="17.8349" y1="26.4141" x2="18.9669" y2="26.4141" gradientUnits="userSpaceOnUse">
<stop stop-color="#100D0A"/>
<stop offset="1" stop-color="#F5B254"/>
</linearGradient>
<linearGradient id="paint2_linear" x1="20.6335" y1="28.9561" x2="21.7656" y2="28.9561" gradientUnits="userSpaceOnUse">
<stop stop-color="#100D0A"/>
<stop offset="1" stop-color="#F5B254"/>
</linearGradient>
<linearGradient id="paint3_linear" x1="1.49012e-07" y1="20" x2="40" y2="20" gradientUnits="userSpaceOnUse">
<stop stop-color="#100D0A"/>
<stop offset="1" stop-color="#F5B254"/>
</linearGradient>
</defs>
</svg>
