<svg width="40" height="40" viewBox="0 0 40 40" fill="none" xmlns="http://www.w3.org/2000/svg" class="benefit-logo">
<g clip-path="url(#clip0)">
<path d="M33.6855 9.78191C34.9568 9.63502 36.8819 9.36039 39.9999 8.92627C36.8809 8.49938 34.9208 8.24207 33.6828 8.08593C33.5282 6.76021 33.2623 4.88994 32.8282 1.77075C32.402 4.89044 32.203 6.79533 31.987 8.08728C30.7411 8.2419 28.7905 8.50879 25.6713 8.94409C28.792 9.37048 30.7754 9.61788 31.9884 9.78359C32.1522 10.9769 32.4109 12.9789 32.8472 16.0971C33.2726 12.9786 33.5282 11.0283 33.6855 9.78191Z" fill="url(#paint0_linear)"/>
<path d="M8.01402 9.78191C9.28529 9.63502 11.2102 9.36039 14.3285 8.92627C11.2095 8.49938 9.24932 8.24207 8.0115 8.08593C7.8567 6.76021 7.59082 4.88994 7.1567 1.77075C6.73048 4.89044 6.53182 6.79533 6.31568 8.08728C5.06979 8.2419 3.11919 8.50879 0 8.94409C3.1207 9.37048 5.10408 9.61788 6.31703 9.78359C6.48073 10.9769 6.73922 12.9789 7.17569 16.0971C7.60124 12.9786 7.8567 11.0283 8.01402 9.78191Z" fill="url(#paint1_linear)"/>
<path d="M8.01402 31.9129C9.28529 31.766 11.2102 31.4914 14.3285 31.0571C11.2095 30.6304 9.24932 30.373 8.0115 30.2167C7.8567 28.8912 7.59082 27.0211 7.1567 23.9017C6.73048 27.0214 6.53182 28.9263 6.31568 30.2183C5.06979 30.373 3.11919 30.6398 0 31.0751C3.1207 31.5015 5.10408 31.749 6.31703 31.9146C6.48073 33.1079 6.73922 35.1099 7.17569 38.2282C7.60124 35.1094 7.8567 33.1593 8.01402 31.9129Z" fill="url(#paint2_linear)"/>
<path d="M33.6855 31.9129C34.9568 31.766 36.8819 31.4914 39.9999 31.0571C36.8809 30.6304 34.9208 30.373 33.6828 30.2167C33.5282 28.8912 33.2623 27.0211 32.8282 23.9017C32.402 27.0214 32.203 28.9263 31.987 30.2183C30.7411 30.373 28.7905 30.6398 25.6713 31.0751C28.792 31.5015 30.7754 31.749 31.9884 31.9146C32.1522 33.1079 32.4109 35.1099 32.8472 38.2282C33.2726 35.1094 33.5282 33.1593 33.6855 31.9129Z" fill="url(#paint3_linear)"/>
<path d="M21.6194 21.6148C24.042 21.3352 27.7102 20.8115 33.6525 19.9841C27.7091 19.171 23.9737 18.6805 21.6146 18.3829C21.3196 15.857 20.8134 12.2929 19.986 6.349C19.1737 12.2939 18.795 15.9239 18.3831 18.3856C16.009 18.6804 12.2918 19.1884 6.34789 20.018C12.295 20.8308 16.0744 21.3022 18.3858 21.6179C18.6981 23.8918 19.1905 27.7068 20.0223 33.6491C20.8325 27.706 21.3196 23.9898 21.6194 21.6148Z" fill="url(#paint4_linear)"/>
</g>
<defs>
<linearGradient id="paint0_linear" x1="25.6713" y1="8.93392" x2="39.9999" y2="8.93392" gradientUnits="userSpaceOnUse">
<stop stop-color="#100D0A"/>
<stop offset="1" stop-color="#F5B254"/>
</linearGradient>
<linearGradient id="paint1_linear" x1="5.33779e-08" y1="8.93392" x2="14.3285" y2="8.93392" gradientUnits="userSpaceOnUse">
<stop stop-color="#100D0A"/>
<stop offset="1" stop-color="#F5B254"/>
</linearGradient>
<linearGradient id="paint2_linear" x1="5.33779e-08" y1="31.065" x2="14.3285" y2="31.065" gradientUnits="userSpaceOnUse">
<stop stop-color="#100D0A"/>
<stop offset="1" stop-color="#F5B254"/>
</linearGradient>
<linearGradient id="paint3_linear" x1="25.6713" y1="31.065" x2="39.9999" y2="31.065" gradientUnits="userSpaceOnUse">
<stop stop-color="#100D0A"/>
<stop offset="1" stop-color="#F5B254"/>
</linearGradient>
<linearGradient id="paint4_linear" x1="6.34789" y1="19.999" x2="33.6525" y2="19.999" gradientUnits="userSpaceOnUse">
<stop stop-color="#100D0A"/>
<stop offset="1" stop-color="#F5B254"/>
</linearGradient>
<clipPath id="clip0">
<rect width="40" height="40" fill="white"/>
</clipPath>
</defs>
</svg>
