<svg width="40" height="40" viewBox="0 0 40 40" fill="none" xmlns="http://www.w3.org/2000/svg" class="benefit-logo">
<g clip-path="url(#clip0)">
<path d="M38.8289 22.5001H1.1716C0.524862 22.5001 0.000538866 23.0244 0.000538866 23.6712V31.1459C0.000538866 31.1498 -7.62939e-06 31.1535 -7.62939e-06 31.1574C-7.62939e-06 31.1607 0.000460795 31.1639 0.000538866 31.1671V35.9205C0.000538866 36.5672 0.524862 37.0915 1.1716 37.0915H38.829C39.4757 37.0915 40.0001 36.5672 40.0001 35.9205V23.6712C40 23.0244 39.4757 22.5001 38.8289 22.5001ZM37.6579 24.8422V29.0508L37.0029 28.2161C36.6793 27.8038 36.2731 27.4767 35.8278 27.27C34.5879 26.6946 33.1054 26.9579 32.1387 27.9245L30.3496 29.7137C30.1743 29.889 29.9413 29.9855 29.6933 29.9855C29.4455 29.9855 29.2124 29.889 29.0371 29.7137L27.248 27.9245C25.9729 26.6495 23.8985 26.6495 22.6234 27.9245L20.836 29.712C20.4741 30.0738 19.8854 30.0737 19.5235 29.712L17.7362 27.9245C16.4612 26.6496 14.3866 26.6494 13.1115 27.9245L11.3266 29.7095C10.966 30.0699 10.3786 30.071 10.017 29.7123C9.43258 29.1322 8.80051 28.5032 8.21764 27.9217C8.19031 27.8944 8.16189 27.8687 8.13246 27.8447C7.52515 27.2776 6.73781 26.9667 5.90261 26.9667C5.02915 26.9667 4.20793 27.3069 3.59031 27.9245L2.34258 29.1723V24.8422H37.6579V24.8422ZM2.34266 34.7496V32.1003C2.75604 31.938 3.13672 31.6907 3.46165 31.3657L5.2465 29.5807C5.60844 29.2189 6.19725 29.219 6.55903 29.5807C6.58174 29.6035 6.60532 29.6251 6.62952 29.6457C7.1953 30.2101 7.80332 30.8151 8.36722 31.3748C9.64212 32.6398 11.7126 32.6357 12.9828 31.3657L14.7677 29.5807C14.943 29.4055 15.176 29.309 15.424 29.309C15.6718 29.309 15.9049 29.4055 16.0801 29.5807L17.8675 31.3682C19.1425 32.6431 21.2172 32.6432 22.4921 31.3682L24.2795 29.5807C24.6414 29.2189 25.2301 29.2189 25.592 29.5807L27.3811 31.3699C28.6562 32.6449 30.7308 32.6449 32.0058 31.3699L33.7949 29.5807C34.0695 29.3062 34.4902 29.2314 34.8419 29.3945C34.9537 29.4464 35.0637 29.5388 35.1602 29.6619L36.4178 31.2646C36.4468 31.3015 36.4779 31.3365 36.511 31.3697C36.8433 31.702 37.2336 31.9532 37.6578 32.1152V34.7496H2.34266Z" fill="url(#paint0_linear)"/>
<path d="M6.82026 9.44029H8.71933V12.4606C8.71933 13.1073 9.24365 13.6317 9.89039 13.6317C10.5371 13.6317 11.0615 13.1073 11.0615 12.4606V9.44029H12.9604C13.6072 9.44029 14.1315 8.91596 14.1315 8.26923C14.1315 7.62249 13.6072 7.09817 12.9604 7.09817H11.0615V4.07792C11.0615 3.43118 10.5371 2.90686 9.89039 2.90686C9.24365 2.90686 8.71933 3.43118 8.71933 4.07792V7.09824H6.82026C6.17352 7.09824 5.6492 7.62257 5.6492 8.2693C5.6492 8.91604 6.17352 9.44029 6.82026 9.44029Z" fill="url(#paint1_linear)"/>
<path d="M8.06967 18.8636C8.80232 18.8636 9.39625 18.2697 9.39625 17.537C9.39625 16.8044 8.80232 16.2104 8.06967 16.2104C7.33702 16.2104 6.7431 16.8044 6.7431 17.537C6.7431 18.2697 7.33702 18.8636 8.06967 18.8636Z" fill="url(#paint2_linear)"/>
<path d="M32.9751 16.2648C32.2425 16.2648 31.6485 16.8587 31.6485 17.5914C31.6485 18.324 32.2424 18.9179 32.9751 18.9179C33.7077 18.9179 34.3016 18.324 34.3016 17.5914C34.3016 16.8587 33.7077 16.2648 32.9751 16.2648Z" fill="url(#paint3_linear)"/>
<path d="M18.7779 12.4334C18.7779 13.0124 19.2011 13.5046 19.7736 13.5912L21.9322 13.9181C23.5391 14.1614 24.7821 15.4045 25.0254 17.0113L25.3522 19.1698C25.4389 19.7424 25.9311 20.1656 26.5101 20.1656C27.0892 20.1656 27.5813 19.7424 27.668 19.1699L27.9949 17.0113C28.2381 15.4045 29.4812 14.1614 31.0882 13.9181L33.2467 13.5912C33.8192 13.5046 34.2424 13.0124 34.2424 12.4334C34.2424 11.8543 33.8192 11.3622 33.2466 11.2755L31.0882 10.9487C29.4812 10.7054 28.2381 9.46223 27.9949 7.8553L27.668 5.69688C27.5813 5.12439 27.0892 4.70117 26.5101 4.70117C25.9311 4.70117 25.4389 5.12439 25.3522 5.69696L25.0254 7.8553C24.7821 9.46223 23.539 10.7054 21.9322 10.9487L19.7737 11.2755C19.2011 11.3622 18.7779 11.8543 18.7779 12.4334ZM26.5101 10.4811C26.9998 11.2753 27.6683 11.9437 28.4624 12.4334C27.6683 12.9231 26.9998 13.5916 26.5101 14.3858C26.0205 13.5916 25.352 12.9232 24.5578 12.4334C25.352 11.9437 26.0205 11.2752 26.5101 10.4811Z" fill="url(#paint4_linear)"/>
<path d="M19.5328 7.11928C20.2654 7.11928 20.8593 6.52535 20.8593 5.7927C20.8593 5.06006 20.2654 4.46613 19.5328 4.46613C18.8001 4.46613 18.2062 5.06006 18.2062 5.7927C18.2062 6.52535 18.8001 7.11928 19.5328 7.11928Z" fill="url(#paint5_linear)"/>
</g>
<defs>
<linearGradient id="paint0_linear" x1="-7.48038e-06" y1="29.7958" x2="40.0001" y2="29.7958" gradientUnits="userSpaceOnUse">
<stop stop-color="#100D0A"/>
<stop offset="1" stop-color="#F5B254"/>
</linearGradient>
<linearGradient id="paint1_linear" x1="5.6492" y1="8.26927" x2="14.1315" y2="8.26927" gradientUnits="userSpaceOnUse">
<stop stop-color="#100D0A"/>
<stop offset="1" stop-color="#F5B254"/>
</linearGradient>
<linearGradient id="paint2_linear" x1="6.7431" y1="17.537" x2="9.39625" y2="17.537" gradientUnits="userSpaceOnUse">
<stop stop-color="#100D0A"/>
<stop offset="1" stop-color="#F5B254"/>
</linearGradient>
<linearGradient id="paint3_linear" x1="31.6485" y1="17.5914" x2="34.3016" y2="17.5914" gradientUnits="userSpaceOnUse">
<stop stop-color="#100D0A"/>
<stop offset="1" stop-color="#F5B254"/>
</linearGradient>
<linearGradient id="paint4_linear" x1="18.7779" y1="12.4334" x2="34.2424" y2="12.4334" gradientUnits="userSpaceOnUse">
<stop stop-color="#100D0A"/>
<stop offset="1" stop-color="#F5B254"/>
</linearGradient>
<linearGradient id="paint5_linear" x1="18.2062" y1="5.79271" x2="20.8593" y2="5.79271" gradientUnits="userSpaceOnUse">
<stop stop-color="#100D0A"/>
<stop offset="1" stop-color="#F5B254"/>
</linearGradient>
<clipPath id="clip0">
<rect width="40" height="40" fill="white"/>
</clipPath>
</defs>
</svg>
