<svg width="40" height="40" viewBox="0 0 40 40" fill="none" xmlns="http://www.w3.org/2000/svg" class="benefit-logo">
<path d="M33.2244 5.97812C29.6875 2.92914 24.9911 1.25 20 1.25C16.3603 1.25 12.8492 2.14922 9.81531 3.8532L8.15625 2.5643C8.09144 2.51394 8.01734 2.47683 7.93819 2.45511C7.85903 2.43339 7.77638 2.42747 7.69494 2.43769C7.61349 2.44791 7.53487 2.47407 7.46354 2.51468C7.39221 2.5553 7.32958 2.60956 7.27922 2.67437L6.8957 3.16789L5.90898 2.40094C5.64974 2.1995 5.35335 2.0511 5.03675 1.96421C4.72015 1.87732 4.38954 1.85363 4.06379 1.89451C3.4059 1.97707 2.80775 2.3176 2.40094 2.84117C1.99412 3.36475 1.81195 4.02848 1.89451 4.68637C1.97707 5.34426 2.3176 5.9424 2.84117 6.34922L3.82812 7.11617L3.44477 7.60938C3.39435 7.67419 3.3572 7.7483 3.33543 7.82748C3.31367 7.90666 3.30772 7.98935 3.31793 8.07082C3.32814 8.1523 3.3543 8.23097 3.39493 8.30233C3.43555 8.37369 3.48984 8.43635 3.55469 8.48672L4.08687 8.90023C2.22938 11.4766 1.25 14.4386 1.25 17.5C1.25 22.294 3.66008 26.7953 7.87055 29.8921C8.54003 31.2796 9.38456 32.5756 10.3835 33.7484C13.0904 36.927 16.5954 38.75 20 38.75C23.4046 38.75 26.9096 36.927 29.6165 33.7484C30.6218 32.5682 31.4707 31.2631 32.1422 29.8656L32.1515 29.8783C36.3449 26.7834 38.75 22.2718 38.75 17.5C38.75 13.1417 36.7877 9.04984 33.2244 5.97812ZM26.224 3.48125C26.0625 4.66992 25.1609 6.48586 23.8785 8.16406C22.4674 10.0097 20.9088 11.25 20 11.25C19.0875 11.2492 18.1761 11.3135 17.2727 11.4425C17.1491 11.2071 16.9765 11.0008 16.7666 10.8374L9.85719 5.46875L10.1356 5.11039C13.048 3.40273 16.457 2.5 20 2.5C22.1135 2.49624 24.2142 2.82743 26.224 3.48125ZM10.5175 10.7308L12.0514 8.75672L16 11.8245C16.0863 11.8921 16.1533 11.9812 16.1944 12.0828C16.2355 12.1844 16.2493 12.295 16.2344 12.4036C16.2196 12.5122 16.2335 12.6227 16.2749 12.7242C16.3163 12.8257 16.3837 12.9145 16.4702 12.9817L17.5904 13.8521C17.6563 13.9021 17.7115 13.9646 17.7531 14.0361C17.7946 14.1076 17.8215 14.1867 17.8323 14.2686C17.843 14.3506 17.8374 14.4339 17.8158 14.5137C17.7941 14.5935 17.7568 14.6682 17.7061 14.7335C17.6554 14.7988 17.5922 14.8534 17.5202 14.894C17.4482 14.9347 17.3689 14.9608 17.2868 14.9706C17.2047 14.9804 17.1215 14.9738 17.0419 14.9512C16.9624 14.9287 16.8881 14.8905 16.8234 14.8391L15.7031 13.9688C15.6166 13.9015 15.514 13.8582 15.4055 13.8431C15.297 13.828 15.1865 13.8417 15.0849 13.8828C14.9835 13.9249 14.8727 13.9392 14.7639 13.9244C14.6552 13.9096 14.5523 13.8662 14.4658 13.7985L10.5175 10.7308ZM9.09023 6.45586L11.0645 7.98977L9.53055 9.96383L7.55633 8.42969L9.09023 6.45586ZM7.88281 3.93484L8.86984 4.70187L5.80234 8.65008L4.81531 7.88281L7.4993 4.42883V4.42844V4.42789L7.88281 3.93484ZM3.60812 5.36211C3.34851 5.15796 3.18023 4.85936 3.14006 4.53155C3.09989 4.20373 3.19109 3.87334 3.39374 3.61255C3.59638 3.35175 3.894 3.18176 4.22158 3.13969C4.54916 3.09763 4.88007 3.18691 5.14203 3.38805L6.12906 4.155L4.59523 6.12906L3.60812 5.36211ZM2.5 17.5C2.5 14.7182 3.38844 12.0216 5.07445 9.6675L5.52891 10.0206C5.59373 10.071 5.66786 10.1082 5.74705 10.1299C5.82623 10.1517 5.90893 10.1576 5.99041 10.1474C6.07188 10.1371 6.15055 10.1109 6.2219 10.0703C6.29325 10.0296 6.3559 9.97534 6.40625 9.91047L6.78969 9.41703L11.7819 13.2959C8.20617 15.386 6.25 18.8428 6.25 23.125C6.25829 24.5954 6.48372 26.0564 6.91898 27.4609C4.08594 24.7325 2.5 21.2075 2.5 17.5ZM28.6648 32.938C26.1959 35.8373 23.0377 37.5 20 37.5C16.9623 37.5 13.8041 35.8373 11.3352 32.938C8.93375 30.1181 7.5 26.4497 7.5 23.125C7.5 19.141 9.39844 15.9592 12.8536 14.1289L13.6988 14.7857C13.9073 14.9468 14.1472 15.0624 14.4031 15.1249C14.659 15.1874 14.9252 15.1954 15.1845 15.1485L16.0564 15.826C16.3838 16.082 16.7875 16.2209 17.203 16.2208C17.2824 16.2207 17.3616 16.2158 17.4403 16.2059C17.8083 16.1598 18.1543 16.0055 18.4346 15.7627C18.7149 15.5199 18.9169 15.1994 19.0151 14.8418C19.1132 14.4841 19.1031 14.1054 18.986 13.7535C18.8689 13.4016 18.6501 13.0924 18.3573 12.8648L18.0248 12.6066C18.6808 12.5353 19.3402 12.4997 20 12.5C23.5078 12.5 26.6648 13.4834 28.8895 15.2691C31.2516 17.1649 32.5 19.8814 32.5 23.125C32.5 26.4497 31.0662 30.1181 28.6648 32.938ZM33.0809 27.4615C33.5163 26.0568 33.7417 24.5956 33.75 23.125C33.75 19.4892 32.3398 16.4356 29.6719 14.2943C27.7751 12.7719 25.2833 11.7803 22.4922 11.4115C23.5216 10.6006 24.4055 9.5325 24.8716 8.92266C26.4256 6.88969 27.177 5.12305 27.4139 3.91484C33.3672 6.31125 37.5 11.4993 37.5 17.5C37.5 21.1963 35.912 24.7309 33.0809 27.4614V27.4615Z" fill="url(#paint0_linear)"/>
<path d="M27.5 21.875C27.5 21.7092 27.4342 21.5503 27.3169 21.4331C27.1997 21.3158 27.0408 21.25 26.875 21.25C26.7092 21.25 26.5503 21.3158 26.4331 21.4331C26.3158 21.5503 26.25 21.7092 26.25 21.875C26.25 22.0408 26.1842 22.1997 26.0669 22.3169C25.9497 22.4342 25.7908 22.5 25.625 22.5C25.4592 22.5 25.3003 22.4342 25.1831 22.3169C25.0658 22.1997 25 22.0408 25 21.875C25 21.7092 24.9342 21.5503 24.8169 21.4331C24.6997 21.3158 24.5408 21.25 24.375 21.25C24.2092 21.25 24.0503 21.3158 23.9331 21.4331C23.8158 21.5503 23.75 21.7092 23.75 21.875C23.75 22.3723 23.9475 22.8492 24.2992 23.2008C24.6508 23.5525 25.1277 23.75 25.625 23.75C26.1223 23.75 26.5992 23.5525 26.9508 23.2008C27.3025 22.8492 27.5 22.3723 27.5 21.875Z" fill="url(#paint1_linear)"/>
<path d="M16.25 21.875C16.25 21.7092 16.1842 21.5503 16.0669 21.4331C15.9497 21.3158 15.7908 21.25 15.625 21.25C15.4592 21.25 15.3003 21.3158 15.1831 21.4331C15.0658 21.5503 15 21.7092 15 21.875C15 22.0408 14.9342 22.1997 14.8169 22.3169C14.6997 22.4342 14.5408 22.5 14.375 22.5C14.2092 22.5 14.0503 22.4342 13.9331 22.3169C13.8158 22.1997 13.75 22.0408 13.75 21.875C13.75 21.7092 13.6842 21.5503 13.5669 21.4331C13.4497 21.3158 13.2908 21.25 13.125 21.25C12.9592 21.25 12.8003 21.3158 12.6831 21.4331C12.5658 21.5503 12.5 21.7092 12.5 21.875C12.5 22.3723 12.6975 22.8492 13.0492 23.2008C13.4008 23.5525 13.8777 23.75 14.375 23.75C14.8723 23.75 15.3492 23.5525 15.7008 23.2008C16.0525 22.8492 16.25 22.3723 16.25 21.875Z" fill="url(#paint2_linear)"/>
<path d="M24.6257 27.5525C24.4738 27.4861 24.3018 27.4827 24.1474 27.5431C23.9931 27.6035 23.869 27.7227 23.8026 27.8746C23.7933 27.8958 22.8398 30.0001 20.0001 30.0001C17.198 30.0001 16.24 27.9675 16.1965 27.8718C16.1286 27.7217 16.0043 27.6044 15.8504 27.5454C15.6966 27.4865 15.5257 27.4907 15.3749 27.5571C15.2242 27.6235 15.1057 27.7468 15.0453 27.9001C14.985 28.0533 14.9876 28.2243 15.0526 28.3757C15.1039 28.493 16.3521 31.2501 20.0001 31.2501C23.6482 31.2501 24.8964 28.493 24.9477 28.3757C25.0142 28.2238 25.0176 28.0518 24.9572 27.8974C24.8968 27.743 24.7775 27.619 24.6257 27.5525Z" fill="url(#paint3_linear)"/>
<path d="M18.75 26.25H21.25C21.4158 26.25 21.5747 26.1842 21.6919 26.0669C21.8092 25.9497 21.875 25.7908 21.875 25.625C21.875 25.4592 21.8092 25.3003 21.6919 25.1831C21.5747 25.0658 21.4158 25 21.25 25H19.375V23.125C19.375 22.9592 19.3092 22.8003 19.1919 22.6831C19.0747 22.5658 18.9158 22.5 18.75 22.5C18.5842 22.5 18.4253 22.5658 18.3081 22.6831C18.1908 22.8003 18.125 22.9592 18.125 23.125V25.625C18.125 25.7908 18.1908 25.9497 18.3081 26.0669C18.4253 26.1842 18.5842 26.25 18.75 26.25Z" fill="url(#paint4_linear)"/>
<path d="M11.875 25C11.5041 25 11.1416 25.11 10.8333 25.316C10.5249 25.522 10.2846 25.8149 10.1427 26.1575C10.0008 26.5001 9.96367 26.8771 10.036 27.2408C10.1084 27.6045 10.2869 27.9386 10.5492 28.2008C10.8114 28.4631 11.1455 28.6416 11.5092 28.714C11.8729 28.7863 12.2499 28.7492 12.5925 28.6073C12.9351 28.4654 13.228 28.225 13.434 27.9167C13.64 27.6084 13.75 27.2458 13.75 26.875C13.7494 26.3779 13.5517 25.9013 13.2002 25.5498C12.8487 25.1983 12.3721 25.0006 11.875 25ZM11.875 27.5C11.7514 27.5 11.6305 27.4634 11.5278 27.3947C11.425 27.326 11.3449 27.2284 11.2976 27.1142C11.2503 27 11.2379 26.8743 11.262 26.7531C11.2861 26.6318 11.3456 26.5205 11.433 26.4331C11.5204 26.3457 11.6318 26.2861 11.7531 26.262C11.8743 26.2379 12 26.2503 12.1142 26.2976C12.2284 26.3449 12.326 26.425 12.3947 26.5278C12.4633 26.6306 12.5 26.7514 12.5 26.875C12.4998 27.0407 12.4339 27.1996 12.3167 27.3167C12.1995 27.4339 12.0407 27.4998 11.875 27.5Z" fill="url(#paint5_linear)"/>
<path d="M28.125 25C27.7542 25 27.3917 25.11 27.0833 25.316C26.775 25.522 26.5346 25.8149 26.3927 26.1575C26.2508 26.5001 26.2137 26.8771 26.286 27.2408C26.3584 27.6045 26.537 27.9386 26.7992 28.2008C27.0614 28.4631 27.3955 28.6416 27.7592 28.714C28.1229 28.7863 28.4999 28.7492 28.8425 28.6073C29.1851 28.4654 29.478 28.225 29.684 27.9167C29.89 27.6084 30 27.2458 30 26.875C29.9994 26.3779 29.8017 25.9013 29.4502 25.5498C29.0987 25.1983 28.6221 25.0006 28.125 25ZM28.125 27.5C28.0014 27.5 27.8806 27.4634 27.7778 27.3947C27.675 27.326 27.5949 27.2284 27.5476 27.1142C27.5003 27 27.4879 26.8743 27.512 26.7531C27.5361 26.6318 27.5957 26.5205 27.6831 26.4331C27.7705 26.3457 27.8818 26.2861 28.0031 26.262C28.1243 26.2379 28.25 26.2503 28.3642 26.2976C28.4784 26.3449 28.576 26.425 28.6447 26.5278C28.7134 26.6306 28.75 26.7514 28.75 26.875C28.7498 27.0407 28.6839 27.1996 28.5667 27.3167C28.4496 27.4339 28.2907 27.4998 28.125 27.5Z" fill="url(#paint6_linear)"/>
<path d="M20 32.5C19.6292 32.5 19.2666 32.61 18.9583 32.816C18.65 33.022 18.4096 33.3149 18.2677 33.6575C18.1258 34.0001 18.0887 34.3771 18.161 34.7408C18.2334 35.1045 18.4119 35.4386 18.6742 35.7008C18.9364 35.9631 19.2705 36.1416 19.6342 36.214C19.9979 36.2863 20.3749 36.2492 20.7175 36.1073C21.0601 35.9654 21.353 35.725 21.559 35.4167C21.765 35.1084 21.875 34.7458 21.875 34.375C21.8744 33.8779 21.6767 33.4013 21.3252 33.0498C20.9737 32.6983 20.4971 32.5006 20 32.5ZM20 35C19.8764 35 19.7555 34.9633 19.6528 34.8947C19.55 34.826 19.4699 34.7284 19.4226 34.6142C19.3753 34.5 19.3629 34.3743 19.387 34.2531C19.4111 34.1318 19.4706 34.0205 19.558 33.9331C19.6455 33.8457 19.7568 33.7861 19.8781 33.762C19.9993 33.7379 20.125 33.7503 20.2392 33.7976C20.3534 33.8449 20.451 33.925 20.5197 34.0278C20.5883 34.1306 20.625 34.2514 20.625 34.375C20.6248 34.5407 20.5589 34.6996 20.4417 34.8167C20.3246 34.9339 20.1657 34.9998 20 35Z" fill="url(#paint7_linear)"/>
<path d="M20 20C20.3708 20 20.7334 19.89 21.0417 19.684C21.35 19.478 21.5904 19.1852 21.7323 18.8425C21.8742 18.4999 21.9113 18.1229 21.839 17.7592C21.7666 17.3955 21.5881 17.0614 21.3258 16.7992C21.0636 16.537 20.7295 16.3584 20.3658 16.286C20.0021 16.2137 19.6251 16.2508 19.2825 16.3927C18.9399 16.5346 18.647 16.775 18.441 17.0833C18.235 17.3917 18.125 17.7542 18.125 18.125C18.1256 18.6221 18.3233 19.0987 18.6748 19.4502C19.0263 19.8017 19.5029 19.9995 20 20ZM20 17.5C20.1236 17.5 20.2445 17.5367 20.3472 17.6053C20.45 17.674 20.5301 17.7716 20.5774 17.8858C20.6247 18 20.6371 18.1257 20.613 18.2469C20.5889 18.3682 20.5294 18.4795 20.4419 18.567C20.3545 18.6544 20.2432 18.7139 20.1219 18.738C20.0007 18.7621 19.875 18.7497 19.7608 18.7024C19.6466 18.6551 19.549 18.575 19.4803 18.4722C19.4117 18.3695 19.375 18.2486 19.375 18.125C19.3752 17.9593 19.4411 17.8004 19.5583 17.6833C19.6754 17.5661 19.8343 17.5002 20 17.5Z" fill="url(#paint8_linear)"/>
<defs>
<linearGradient id="paint0_linear" x1="1.25" y1="20" x2="38.75" y2="20" gradientUnits="userSpaceOnUse">
<stop stop-color="#100D0A"/>
<stop offset="1" stop-color="#F5B254"/>
</linearGradient>
<linearGradient id="paint1_linear" x1="23.75" y1="22.5" x2="27.5" y2="22.5" gradientUnits="userSpaceOnUse">
<stop stop-color="#100D0A"/>
<stop offset="1" stop-color="#F5B254"/>
</linearGradient>
<linearGradient id="paint2_linear" x1="12.5" y1="22.5" x2="16.25" y2="22.5" gradientUnits="userSpaceOnUse">
<stop stop-color="#100D0A"/>
<stop offset="1" stop-color="#F5B254"/>
</linearGradient>
<linearGradient id="paint3_linear" x1="15.0019" y1="29.3751" x2="25.0001" y2="29.3751" gradientUnits="userSpaceOnUse">
<stop stop-color="#100D0A"/>
<stop offset="1" stop-color="#F5B254"/>
</linearGradient>
<linearGradient id="paint4_linear" x1="18.125" y1="24.375" x2="21.875" y2="24.375" gradientUnits="userSpaceOnUse">
<stop stop-color="#100D0A"/>
<stop offset="1" stop-color="#F5B254"/>
</linearGradient>
<linearGradient id="paint5_linear" x1="9.99998" y1="26.875" x2="13.75" y2="26.875" gradientUnits="userSpaceOnUse">
<stop stop-color="#100D0A"/>
<stop offset="1" stop-color="#F5B254"/>
</linearGradient>
<linearGradient id="paint6_linear" x1="26.25" y1="26.875" x2="30" y2="26.875" gradientUnits="userSpaceOnUse">
<stop stop-color="#100D0A"/>
<stop offset="1" stop-color="#F5B254"/>
</linearGradient>
<linearGradient id="paint7_linear" x1="18.125" y1="34.375" x2="21.875" y2="34.375" gradientUnits="userSpaceOnUse">
<stop stop-color="#100D0A"/>
<stop offset="1" stop-color="#F5B254"/>
</linearGradient>
<linearGradient id="paint8_linear" x1="18.125" y1="18.125" x2="21.875" y2="18.125" gradientUnits="userSpaceOnUse">
<stop stop-color="#100D0A"/>
<stop offset="1" stop-color="#F5B254"/>
</linearGradient>
</defs>
</svg>
