<svg width="43" height="43" viewBox="0 0 43 43" fill="none" xmlns="http://www.w3.org/2000/svg">
<path fill-rule="evenodd" clip-rule="evenodd" d="M12.9969 0.998658C15.1962 0.897408 15.8975 0.874908 21.5 0.874908C27.1025 0.874908 27.8037 0.899283 30.0012 0.998658C32.1987 1.09803 33.6987 1.44866 35.0112 1.95678C36.3856 2.47616 37.6325 3.28803 38.6637 4.33803C39.7137 5.36741 40.5238 6.61241 41.0412 7.98866C41.5513 9.30116 41.9 10.8012 42.0012 12.9949C42.1025 15.198 42.125 15.8993 42.125 21.4999C42.125 27.1024 42.1006 27.8037 42.0012 30.003C41.9019 32.1968 41.5513 33.6968 41.0412 35.0093C40.5237 36.3857 39.7124 37.6328 38.6637 38.6637C37.6325 39.7137 36.3856 40.5237 35.0112 41.0412C33.6987 41.5512 32.1987 41.8999 30.005 42.0012C27.8037 42.1024 27.1025 42.1249 21.5 42.1249C15.8975 42.1249 15.1962 42.1005 12.9969 42.0012C10.8031 41.9018 9.30312 41.5512 7.99062 41.0412C6.61423 40.5236 5.36716 39.7123 4.33625 38.6637C3.28696 37.6337 2.47496 36.3872 1.95687 35.0112C1.44875 33.6987 1.1 32.1987 0.99875 30.0049C0.8975 27.8018 0.875 27.1005 0.875 21.4999C0.875 15.8974 0.899375 15.1962 0.99875 12.9987C1.09812 10.8012 1.44875 9.30116 1.95687 7.98866C2.47573 6.61256 3.28835 5.36612 4.33812 4.33616C5.36758 3.2871 6.61338 2.47511 7.98875 1.95678C9.30125 1.44866 10.8012 1.09991 12.995 0.998658H12.9969ZM29.8344 4.71116C27.6594 4.61178 27.0069 4.59116 21.5 4.59116C15.9931 4.59116 15.3406 4.61178 13.1656 4.71116C11.1537 4.80303 10.0625 5.13866 9.335 5.42178C8.37312 5.79678 7.685 6.24116 6.96313 6.96303C6.27883 7.62876 5.75221 8.43919 5.42187 9.33491C5.13875 10.0624 4.80312 11.1537 4.71125 13.1655C4.61187 15.3405 4.59125 15.993 4.59125 21.4999C4.59125 27.0068 4.61187 27.6593 4.71125 29.8343C4.80312 31.8462 5.13875 32.9374 5.42187 33.6649C5.75187 34.5593 6.27875 35.3712 6.96313 36.0368C7.62875 36.7212 8.44062 37.248 9.335 37.578C10.0625 37.8612 11.1537 38.1968 13.1656 38.2887C15.3406 38.388 15.9912 38.4087 21.5 38.4087C27.0087 38.4087 27.6594 38.388 29.8344 38.2887C31.8462 38.1968 32.9375 37.8612 33.665 37.578C34.6269 37.203 35.315 36.7587 36.0369 36.0368C36.7212 35.3712 37.2481 34.5593 37.5781 33.6649C37.8612 32.9374 38.1969 31.8462 38.2887 29.8343C38.3881 27.6593 38.4087 27.0068 38.4087 21.4999C38.4087 15.993 38.3881 15.3405 38.2887 13.1655C38.1969 11.1537 37.8612 10.0624 37.5781 9.33491C37.2031 8.37303 36.7587 7.68491 36.0369 6.96303C35.3711 6.27879 34.5607 5.75218 33.665 5.42178C32.9375 5.13866 31.8462 4.80303 29.8344 4.71116ZM18.8656 27.858C20.3369 28.4705 21.9751 28.5531 23.5005 28.0919C25.0259 27.6306 26.3439 26.6541 27.2293 25.3291C28.1147 24.0041 28.5126 22.4128 28.3551 20.827C28.1976 19.2412 27.4944 17.7592 26.3656 16.6343C25.6461 15.9152 24.776 15.3646 23.8181 15.0221C22.8602 14.6796 21.8383 14.5537 20.8259 14.6536C19.8136 14.7534 18.8359 15.0765 17.9634 15.5995C17.0909 16.1226 16.3451 16.8326 15.7799 17.6784C15.2147 18.5242 14.8441 19.4848 14.6947 20.4911C14.5453 21.4973 14.6209 22.5242 14.916 23.4978C15.2111 24.4713 15.7184 25.3673 16.4014 26.1213C17.0843 26.8752 17.9259 27.4684 18.8656 27.858ZM14.0037 14.0037C14.9882 13.0192 16.1568 12.2384 17.4431 11.7056C18.7293 11.1728 20.1078 10.8986 21.5 10.8986C22.8922 10.8986 24.2707 11.1728 25.5569 11.7056C26.8431 12.2384 28.0118 13.0192 28.9962 14.0037C29.9807 14.9881 30.7616 16.1568 31.2943 17.443C31.8271 18.7292 32.1013 20.1077 32.1013 21.4999C32.1013 22.8921 31.8271 24.2706 31.2943 25.5569C30.7616 26.8431 29.9807 28.0117 28.9962 28.9962C27.0081 30.9843 24.3116 32.1012 21.5 32.1012C18.6884 32.1012 15.9919 30.9843 14.0037 28.9962C12.0156 27.008 10.8987 24.3115 10.8987 21.4999C10.8987 18.6883 12.0156 15.9918 14.0037 14.0037ZM34.4525 12.4774C34.6964 12.2473 34.8917 11.9706 35.0268 11.6636C35.1619 11.3567 35.234 11.0257 35.2389 10.6904C35.2438 10.3551 35.1814 10.0222 35.0553 9.71143C34.9292 9.40067 34.7421 9.11837 34.5049 8.88123C34.2678 8.6441 33.9855 8.45695 33.6747 8.33088C33.364 8.2048 33.0311 8.14236 32.6958 8.14725C32.3604 8.15214 32.0295 8.22426 31.7225 8.35934C31.4156 8.49442 31.1389 8.68971 30.9087 8.93366C30.4612 9.40809 30.2162 10.0383 30.2257 10.6904C30.2352 11.3425 30.4985 11.9653 30.9597 12.4265C31.4208 12.8877 32.0436 13.151 32.6958 13.1605C33.3479 13.17 33.9781 12.925 34.4525 12.4774Z" fill="black"/>
</svg>
